<?xml version="1.0" encoding="UTF-8" standalone="no"?>
<svg width="438px" height="120px" viewBox="0 0 438 120" version="1.1" xmlns="http://www.w3.org/2000/svg" xmlns:xlink="http://www.w3.org/1999/xlink" xmlns:sketch="http://www.bohemiancoding.com/sketch/ns">
    <title>Rebar</title>
    <description>Created with Sketch (http://www.bohemiancoding.com/sketch)</description>
    <defs></defs>
    <g id="Page-1" stroke="none" stroke-width="1" fill="none" fill-rule="evenodd" sketch:type="MSPage">
        <g id="Rebar" sketch:type="MSArtboardGroup">
            <path d="M338.51634,115.550725 L333.124183,104.681159 L332.54902,104.681159 C328.762508,109.415483 324.904159,112.652165 320.973856,114.391304 C317.043553,116.130443 311.962994,117 305.732026,117 C298.063142,117 292.023987,114.681183 287.614379,110.043478 C283.204771,105.405774 281,98.8841 281,90.4782609 C281,81.7342558 284.019578,75.2246591 290.058824,70.9492754 C296.098069,66.6738917 304.845259,64.2705341 316.300654,63.7391304 L329.888889,63.3043478 L329.888889,62.1449275 C329.888889,55.3816087 326.581732,52 319.96732,52 C314.023935,52 306.474991,54.0289652 297.320261,58.0869565 L289.196078,39.3913043 C298.686322,34.4637435 310.668773,32 325.143791,32 C335.592645,32 343.680799,34.6086696 349.408497,39.826087 C355.136194,45.0435043 358,52.3381174 358,61.7101449 L358,115.550725 L338.51634,115.550725 Z M317.844523,97 C321.189652,97 324.051814,95.9200108 326.431095,93.76 C328.810377,91.5999892 330,88.7920173 330,85.336 L330,79 L323.639576,79.288 C314.54648,79.6240017 310,83.0319676 310,89.512 C310,94.504025 312.614815,97 317.844523,97 Z M426.404732,32 C428.860535,32 431.195921,32.1919611 433.410959,32.575889 L435,32.8638335 L432.47198,59.4267129 C430.160636,58.8508211 426.958509,58.5628794 422.865504,58.5628794 C416.70192,58.5628794 412.223758,59.9665948 409.430884,62.7740676 C406.63801,65.5815405 405.241594,69.6247206 405.241594,74.9037294 L405.241594,115 L377,115 L377,33.4397225 L398.01868,33.4397225 L402.424658,46.4692108 L403.797011,46.4692108 C406.156508,42.1500218 409.442901,38.6587297 413.656289,35.9952298 C417.869677,33.33173 422.119115,32 426.404732,32 Z" stroke="#B3B3B3" stroke-width="2" stroke-dasharray="5,3" fill="#FFFFFF" sketch:type="MSShapeGroup"></path>
            <path d="M104.301188,104.094203 C96.7670251,96.8236351 93,86.4734971 93,73.0434783 C93,59.1786746 96.4902149,48.5386844 103.47075,41.1231884 C110.451284,33.7076924 120.41645,30 133.366545,30 C145.690799,30 155.210661,33.2246054 161.926417,39.673913 C168.642173,46.1232207 172,55.4105674 172,67.5362319 L172,80.1449275 L121.523766,80.1449275 C121.716332,84.7343225 123.389229,88.3333203 126.542505,90.942029 C129.695781,93.5507377 133.992355,94.8550725 139.432358,94.8550725 C144.390945,94.8550725 148.952295,94.3840627 153.116545,93.442029 C157.280795,92.4999953 161.794004,90.8937312 166.656307,88.6231884 L166.656307,108.985507 C162.227278,111.25605 157.653893,112.826083 152.936015,113.695652 C148.218136,114.565222 142.585651,115 136.038391,115 C122.414313,115 111.835352,111.364771 104.301188,104.094203 Z M135.142857,49 C131.857126,49 129.107154,50.0472117 126.892857,52.1416667 C124.67856,54.2361216 123.380954,57.5221998 123,62 L147,62 C146.904761,58.0518321 145.79763,54.8981599 143.678571,52.5388889 C141.559513,50.1796178 138.714304,49 135.142857,49 Z" id="Path" fill="#000000" sketch:type="MSShapeGroup"></path>
            <path d="M261.164991,43.3629442 C266.388356,50.8376008 269,61.181406 269,74.3946701 C269,87.7043813 266.364286,98.1325765 261.092779,105.679569 C255.821272,113.226561 248.49182,117 239.104205,117 C236.071283,117 233.375393,116.674496 231.016453,116.023477 C228.657514,115.372459 226.55135,114.46828 224.697898,113.310914 C222.844445,112.153548 220.69014,110.224633 218.234918,107.524112 L216.501828,107.524112 L212.02468,115.553299 L190,115.553299 L190,3 L218.234918,3 L218.234918,28.4619289 C218.234918,31.5000152 217.897931,36.7321964 217.223949,44.1586294 L218.234918,44.1586294 C220.97899,39.9149534 224.144254,36.8528013 227.730804,34.9720812 C231.317355,33.0913612 235.397296,32.1510152 239.97075,32.1510152 C248.876949,32.1510152 255.941625,35.8882875 261.164991,43.3629442 Z" id="Path" stroke="#333333" stroke-width="2" fill="#FFFFFF" sketch:type="MSShapeGroup"></path>
            <path d="M233.396721,54 C229.453532,54 226.568315,55.3792966 224.740984,58.137931 C222.913652,60.8965655 222,65.2280407 222,71.1324864 L222,75.1252269 C222,81.8524232 222.913652,86.6799612 224.740984,89.6079855 C226.568315,92.5360098 229.549706,94 233.685246,94 C237.003295,94 239.551904,92.2940279 241.331148,88.8820327 C243.110391,85.4700374 244,80.448914 244,73.8185118 C244,60.6061045 240.465609,54 233.396721,54 L233.396721,54 Z" id="Path" stroke="#333333" stroke-width="2" fill="#FFFFFF" sketch:type="MSShapeGroup"></path>
            <path d="M28.6871508,77.4281806 L28.6871508,116 L0,116 L0,10 L34.7877095,10 C63.6444646,10 78.0726257,20.4403881 78.0726257,41.3214774 C78.0726257,53.5987846 72.0689613,63.0966376 60.0614525,69.8153215 L91,116 L58.4636872,116 L35.9497207,77.4281806 L28.6871508,77.4281806 Z M29,55 L34.2669039,55 C44.0890171,55 49,50.6168103 49,41.8502994 C49,34.6167303 44.1839153,31 34.5516014,31 L29,31 L29,55 Z" id="Path" fill="#B50606" sketch:type="MSShapeGroup"></path>
        </g>
    </g>
</svg>